<svg xmlns="http://www.w3.org/2000/svg" viewBox="0 0 21.56 21.56"><defs><style>.cls-1{fill:blue;}</style></defs><title>CalenderAsset 20</title><g id="Layer_2" data-name="Layer 2"><g id="Layer_1-2" data-name="Layer 1"><path class="cls-1" d="M19,1.68H18V0H16.34V1.68H5.22V0H3.54V1.68h-1A2.53,2.53,0,0,0,0,4.21V19a2.53,2.53,0,0,0,2.53,2.53H19A2.53,2.53,0,0,0,21.56,19V4.21A2.53,2.53,0,0,0,19,1.68ZM2.53,3.37h1V5.05H5.22V3.37H16.34V5.05H18V3.37h1a.84.84,0,0,1,.84.84v2H1.68v-2A.84.84,0,0,1,2.53,3.37ZM19,19.88H2.53A.84.84,0,0,1,1.68,19V7.92H19.88V19A.84.84,0,0,1,19,19.88Z"/><rect class="cls-1" x="3.2" y="9.69" width="1.68" height="1.68"/><rect class="cls-1" x="6.57" y="9.69" width="1.68" height="1.68"/><rect class="cls-1" x="9.94" y="9.69" width="1.68" height="1.68"/><rect class="cls-1" x="13.31" y="9.69" width="1.68" height="1.68"/><rect class="cls-1" x="16.68" y="9.69" width="1.68" height="1.68"/><rect class="cls-1" x="3.2" y="13.06" width="1.68" height="1.68"/><rect class="cls-1" x="6.57" y="13.06" width="1.68" height="1.68"/><rect class="cls-1" x="9.94" y="13.06" width="1.68" height="1.68"/><rect class="cls-1" x="13.31" y="13.06" width="1.68" height="1.68"/><rect class="cls-1" x="3.2" y="16.42" width="1.68" height="1.68"/><rect class="cls-1" x="6.57" y="16.42" width="1.68" height="1.68"/><rect class="cls-1" x="9.94" y="16.42" width="1.68" height="1.68"/><rect class="cls-1" x="13.31" y="16.42" width="1.68" height="1.68"/><rect class="cls-1" x="16.68" y="13.06" width="1.68" height="1.68"/></g></g></svg>