<svg xmlns="http://www.w3.org/2000/svg" viewBox="0 0 57.9 42.51"><defs><style>.cls-1{fill:#fff;}</style></defs><title>ADD moreAsset 19</title><g id="Layer_2" data-name="Layer 2"><g id="Layer_1-2" data-name="Layer 1"><path class="cls-1" d="M50.33,20.65a.85.85,0,0,0,.76-1.52c-2-1-5.66-1-5.82-1a.85.85,0,1,0,0,1.7A14.65,14.65,0,0,1,50.33,20.65Z"/><path class="cls-1" d="M55.31,31.21l-3.5-1a.36.36,0,0,1-.26-.34V28.7a6.37,6.37,0,0,0,.81-.67,6.24,6.24,0,0,0,1.91-4.51V21.91l.34-.68a5.41,5.41,0,0,0,.57-2.41V14.45a.85.85,0,0,0-.85-.85H46.17A5.39,5.39,0,0,0,40.79,19V19a4.5,4.5,0,0,0,.47,2l.43.87v1.39a6.62,6.62,0,0,0,2.72,5.35v1.23c0,.19,0,.27-.7.47L42,30.82,37.06,29a.85.85,0,0,0-.23-.65l-1.58-1.66V23.93c.17-.14.33-.28.49-.43a10,10,0,0,0,3.14-7.24V14a9.8,9.8,0,0,0,.91-4.12V.85A.85.85,0,0,0,38.94,0H26.24a8.11,8.11,0,0,0-8.1,8.1V9.92A9.8,9.8,0,0,0,19,14V16a10.36,10.36,0,0,0,3.63,7.91v2.85l-1.58,1.66a.85.85,0,0,0-.23.65l-5.22,1.9a4.45,4.45,0,0,0-1,.55l-.82-.41A6.48,6.48,0,0,0,17,28.43a.85.85,0,0,0,0-.76c-.61-1.22-.69-3.46-.75-5.27,0-.6,0-1.17-.07-1.67A7.38,7.38,0,0,0,9,13.6a7.38,7.38,0,0,0-7.19,7.14c0,.5-.05,1.07-.07,1.67-.06,1.8-.13,4-.75,5.27a.85.85,0,0,0,0,.76,6.48,6.48,0,0,0,3.25,2.63L2,32.2a3.55,3.55,0,0,0-2,3.19v6.27a.85.85,0,1,0,1.7,0V35.39a1.86,1.86,0,0,1,1-1.67L5.57,32.3l1,.94a3.57,3.57,0,0,0,4.92,0l1-.94.92.46a4.47,4.47,0,0,0-.68,2.37v6.53a.85.85,0,1,0,1.7,0V35.13a2.79,2.79,0,0,1,1.83-2.61l5.5-2L24,34a1.75,1.75,0,0,0,1.29.77h.17a1.75,1.75,0,0,0,1.24-.51l1.4-1.4v8.84a.85.85,0,1,0,1.7,0V32.82l1.4,1.4a1.75,1.75,0,0,0,1.24.51h.17A1.75,1.75,0,0,0,33.91,34l2.29-3.44,5.5,2a2.79,2.79,0,0,1,1.83,2.61v6.53a.85.85,0,0,0,1.7,0V35.13A4.48,4.48,0,0,0,44,32l.21-.06a4.65,4.65,0,0,0,.79-.28l2.17,2.17v7.81a.85.85,0,0,0,1.7,0V33.85L51,31.7a2,2,0,0,0,.36.14l3.5,1a1.88,1.88,0,0,1,1.36,1.8v7a.85.85,0,0,0,1.7,0v-7A3.58,3.58,0,0,0,55.31,31.21Zm-42.74-1.5v-1a6.27,6.27,0,0,0,2.24-2.76,9.34,9.34,0,0,0,.48,2A6.13,6.13,0,0,1,12.58,29.72ZM3.51,20.86a6.3,6.3,0,0,1,1.71-4,5.27,5.27,0,0,1,7.58,0,6.3,6.3,0,0,1,1.71,4c0,.47.05,1,.07,1.61v.15a7.62,7.62,0,0,0-4.19-3.06A10.65,10.65,0,0,0,7.17,19a.85.85,0,0,0-.59.26L5.06,20.89a.85.85,0,0,0,1.22,1.18l1.27-1.32c1.1.05,4.62.46,6,3.49a4.59,4.59,0,0,1-9.13-.71.85.85,0,0,0-.85-.85H3.43v-.22C3.46,21.88,3.47,21.33,3.51,20.86ZM2.72,28a9.35,9.35,0,0,0,.48-2A6.32,6.32,0,0,0,5.44,28.7v1A6.1,6.1,0,0,1,2.72,28Zm5,4-.79-.75a1.75,1.75,0,0,0,.21-.83v-.9a6.31,6.31,0,0,0,3.75,0v.9a1.76,1.76,0,0,0,.21.83L10.3,32A1.87,1.87,0,0,1,7.72,32ZM20.74,16v-2.1a.85.85,0,0,0-.08-.37,8.14,8.14,0,0,1-.82-3.56V8.1A6.41,6.41,0,0,1,26.24,1.7H38.09V9.92a8.14,8.14,0,0,1-.82,3.56.85.85,0,0,0-.08.37v2.42a8.14,8.14,0,0,1-2.6,6,8.44,8.44,0,0,1-.65.55h0a8.16,8.16,0,0,1-5.5,1.64A8.4,8.4,0,0,1,20.74,16ZM28.3,26.16l.67,0a9.82,9.82,0,0,0,4.58-1.12v1.55L29,29.75l-4.59-3.14V25A9.55,9.55,0,0,0,28.3,26.16ZM25.52,33a.05.05,0,0,1,0,0,.05.05,0,0,1,0,0l-2.64-4,.85-.89,4,2.74Zm7,0a.05.05,0,0,1,0,0,.05.05,0,0,1,0,0L30.29,30.9l4-2.74.85.89Zm10.89-9.72V21.71a.85.85,0,0,0-.09-.38l-.52-1A2.79,2.79,0,0,1,42.49,19V19a3.69,3.69,0,0,1,3.69-3.69h7.31v3.52a3.71,3.71,0,0,1-.39,1.65l-.43.86a.85.85,0,0,0-.09.38v1.81a4.59,4.59,0,0,1-4.74,4.59A4.75,4.75,0,0,1,43.39,23.29Zm4.4,6.51H48a6.3,6.3,0,0,0,1.87-.28v.34a2,2,0,0,0,.06.49L48,32.3l-1.92-1.92a2.33,2.33,0,0,0,.05-.5v-.36A6,6,0,0,0,47.79,29.81Z"/><path class="cls-1" d="M53.43,35.37a.85.85,0,0,0-.85.85v5.44a.85.85,0,1,0,1.7,0V36.22A.85.85,0,0,0,53.43,35.37Z"/><path class="cls-1" d="M4.48,36.49a.85.85,0,0,0-.85.85v4.32a.85.85,0,1,0,1.7,0V37.34A.85.85,0,0,0,4.48,36.49Z"/><path class="cls-1" d="M23.46,9.78a.06.06,0,0,1,0-.06A26.8,26.8,0,0,1,29,9.45c2.65.18,4.56.84,5.69,2a.85.85,0,0,0,1.2-1.2C32.7,7,26,7.63,23.25,8a1.74,1.74,0,0,0-1.49,1.73v2a.85.85,0,1,0,1.7,0v-2Z"/><path class="cls-1" d="M19,37.18a.85.85,0,0,0-.85.85v3.63a.85.85,0,0,0,1.7,0V38A.85.85,0,0,0,19,37.18Z"/><path class="cls-1" d="M38.94,37.18a.85.85,0,0,0-.85.85v3.63a.85.85,0,0,0,1.7,0V38A.85.85,0,0,0,38.94,37.18Z"/></g></g></svg>